<svg xmlns="http://www.w3.org/2000/svg" viewBox="0 0 64 64">
  <!-- 몸통 -->
  <ellipse cx="32" cy="40" rx="20" ry="18" fill="#FFD54F"/>
  <!-- 머리 -->
  <circle cx="32" cy="22" r="14" fill="#FFD54F"/>
  <!-- 볼터치 왼쪽 -->
  <ellipse cx="22" cy="26" rx="4" ry="3" fill="#FFAB91" opacity="0.6"/>
  <!-- 볼터치 오른쪽 -->
  <ellipse cx="42" cy="26" rx="4" ry="3" fill="#FFAB91" opacity="0.6"/>
  <!-- 왼쪽 눈 -->
  <circle cx="27" cy="20" r="2.5" fill="#37474F"/>
  <circle cx="27.8" cy="19" r="0.8" fill="#FFF"/>
  <!-- 오른쪽 눈 -->
  <circle cx="37" cy="20" r="2.5" fill="#37474F"/>
  <circle cx="37.8" cy="19" r="0.8" fill="#FFF"/>
  <!-- 부리 -->
  <path d="M29 24 L32 28 L35 24 Z" fill="#FF8F00"/>
  <!-- 왼쪽 날개 -->
  <ellipse cx="14" cy="38" rx="6" ry="10" fill="#FFC107" transform="rotate(-15 14 38)"/>
  <!-- 오른쪽 날개 -->
  <ellipse cx="50" cy="38" rx="6" ry="10" fill="#FFC107" transform="rotate(15 50 38)"/>
  <!-- 왼발 -->
  <path d="M24 56 L20 60 L24 60 L28 60 L24 56" fill="#FF8F00"/>
  <!-- 오른발 -->
  <path d="M40 56 L36 60 L40 60 L44 60 L40 56" fill="#FF8F00"/>
  <!-- 머리 위 깃털 -->
  <path d="M32 8 Q34 4 30 6 Q32 2 34 6 Q36 4 32 8" fill="#FFC107"/>
</svg>
